<?xml version="1.0" standalone="no"?>
<!DOCTYPE svg PUBLIC "-//W3C//DTD SVG 20010904//EN"
 "http://www.w3.org/TR/2001/REC-SVG-20010904/DTD/svg10.dtd">
<svg version="1.0" xmlns="http://www.w3.org/2000/svg"
 width="4501.000000pt" height="4501.000000pt" viewBox="0 0 4501.000000 4501.000000"
 preserveAspectRatio="xMidYMid meet">

<g transform="translate(0.000000,4501.000000) scale(0.100000,-0.100000)"
fill="#000000" stroke="none">
<path d="M10 22510 l0 -22500 22500 0 22500 0 0 22500 0 22500 -22500 0
-22500 0 0 -22500z m19355 7451 c83 -21 157 -49 240 -90 359 -178 605 -495
691 -891 26 -119 26 -390 1 -510 -52 -242 -163 -453 -331 -628 -103 -108 -206
-185 -333 -250 -191 -98 -372 -142 -588 -142 -344 0 -641 120 -886 357 -204
198 -327 428 -375 703 -24 140 -15 389 19 525 110 433 433 776 856 909 143 45
229 56 416 52 150 -4 184 -8 290 -35z m7675 -57 c338 -382 543 -811 632 -1320
20 -113 22 -164 22 -414 0 -307 -11 -410 -69 -639 -88 -349 -269 -709 -503
-1001 -44 -56 -699 -720 -1591 -1613 -994 -995 -1507 -1516 -1491 -1513 156
35 957 153 1259 186 471 52 834 61 1026 26 254 -47 602 -209 797 -372 120
-101 321 -348 435 -539 337 -560 449 -1214 318 -1859 -83 -409 -256 -778 -525
-1116 -57 -72 -809 -831 -2392 -2415 l-2309 -2310 -54 60 c-463 506 -705 1116
-705 1778 0 599 188 1141 563 1622 44 56 651 672 1606 1628 1534 1536 1536
1539 1441 1481 -510 -307 -1093 -463 -1591 -424 -316 24 -603 106 -896 256
-488 249 -831 597 -1077 1094 -117 236 -191 464 -237 730 -27 158 -37 526 -19
693 53 498 245 962 566 1367 70 89 4681 4710 4699 4710 6 0 49 -43 95 -96z
m-6670 -7927 c0 -4898 3 -4639 -50 -4896 -210 -1029 -1032 -1836 -2064 -2025
-134 -25 -340 -46 -447 -46 l-59 0 0 4543 c0 4987 -4 4643 60 4934 43 197 110
385 205 578 93 190 181 329 305 485 340 427 840 749 1375 885 195 50 411 80
608 84 l67 1 0 -4543z"/>
</g>
</svg>
